<?xml version="1.0" standalone="no"?>
<!DOCTYPE svg PUBLIC "-//W3C//DTD SVG 20010904//EN"
 "http://www.w3.org/TR/2001/REC-SVG-20010904/DTD/svg10.dtd">
<svg version="1.0" xmlns="http://www.w3.org/2000/svg"
 width="800.000000pt" height="205.000000pt" viewBox="0 0 800.000000 205.000000"
 preserveAspectRatio="xMidYMid meet">

<g transform="translate(0.000000,205.000000) scale(0.100000,-0.100000)"
fill="#000000" stroke="none">
<path d="M2915 1689 c-27 -4 -85 -11 -128 -14 l-78 -7 2 -214 c0 -119 -1 -218
-5 -221 -3 -3 -23 10 -44 29 -50 45 -112 62 -211 56 -140 -8 -248 -86 -313
-225 -27 -57 -32 -81 -36 -168 -7 -164 28 -272 117 -358 68 -68 140 -100 233
-105 96 -6 156 9 223 54 29 19 55 34 59 34 3 0 6 -15 6 -33 0 -18 5 -38 12
-45 14 -14 245 -17 266 -3 11 6 11 39 3 179 -17 275 -10 739 15 985 l7 67 -39
-1 c-22 -1 -61 -5 -89 -10z m-315 -629 c41 -11 94 -61 109 -103 17 -44 13 -96
-10 -144 -55 -113 -198 -125 -266 -22 -23 36 -28 53 -27 104 1 78 29 129 88
156 47 21 58 22 106 9z"/>
<path d="M3833 1676 c-59 -28 -82 -58 -90 -114 -12 -87 56 -154 161 -160 105
-6 169 45 170 136 1 62 -18 98 -69 127 -63 37 -111 40 -172 11z"/>
<path d="M5255 1689 c-38 -5 -106 -11 -149 -15 l-79 -6 6 -256 c4 -140 7 -405
7 -588 0 -289 2 -335 16 -348 12 -13 40 -16 134 -16 65 0 125 3 134 6 14 5 16
32 16 198 l1 191 122 -188 c119 -182 130 -194 182 -198 63 -4 232 3 245 11 12
7 9 16 -18 52 -65 87 -292 431 -292 443 0 7 72 61 160 119 88 59 158 112 154
117 -16 26 -216 109 -263 109 -19 0 -67 -28 -155 -91 -70 -50 -130 -88 -133
-85 -3 3 0 125 6 271 7 146 9 270 6 275 -3 6 -12 9 -18 9 -7 -1 -43 -6 -82
-10z"/>
<path d="M3265 1298 c-27 -5 -86 -15 -130 -22 -90 -13 -97 -22 -74 -93 8 -25
14 -150 18 -373 l6 -335 66 -9 c36 -5 118 -5 182 -1 94 6 119 10 126 23 5 11
-6 89 -30 206 -43 216 -43 216 -64 216 -44 0 -72 82 -41 122 32 42 115 28 131
-22 6 -18 15 -20 104 -20 81 0 100 3 113 18 18 21 61 211 53 234 -3 8 -31 24
-62 33 -75 24 -140 15 -227 -30 -38 -20 -70 -34 -73 -32 -2 2 -7 24 -11 48 -8
49 -13 51 -87 37z"/>
<path d="M3875 1303 c-22 -2 -54 -5 -72 -8 l-31 -6 -31 -129 c-41 -173 -41
-170 13 -170 25 0 47 -3 49 -7 3 -5 -15 -105 -40 -223 -25 -118 -45 -231 -46
-250 -2 -34 -1 -35 43 -42 80 -12 265 -9 282 5 14 11 17 60 20 414 l4 403 -30
10 c-28 10 -74 11 -161 3z"/>
<path d="M4305 1290 c-55 -10 -116 -19 -135 -19 -53 -1 -60 -13 -42 -79 10
-42 16 -143 19 -385 l5 -328 25 -10 c37 -14 246 -12 261 3 9 9 12 79 12 256 0
148 4 251 10 263 25 45 131 75 179 50 41 -22 44 -43 43 -308 l0 -254 25 -10
c33 -12 240 -12 264 1 18 10 19 22 13 343 -3 183 -7 342 -10 354 -6 33 -61 91
-108 115 -49 25 -154 35 -211 19 -22 -6 -76 -31 -119 -56 -44 -25 -83 -45 -88
-45 -4 0 -8 16 -8 36 0 36 -15 75 -28 73 -4 0 -52 -9 -107 -19z"/>
</g>
</svg>
